<mxfile host="Electron" agent="Mozilla/5.0 (Windows NT 10.0; Win64; x64) AppleWebKit/537.36 (KHTML, like Gecko) draw.io/25.0.1 Chrome/128.0.6613.186 Electron/32.2.6 Safari/537.36" version="25.0.1">
  <diagram name="Page-1" id="2YBvvXClWsGukQMizWep">
    <mxGraphModel dx="1514" dy="957" grid="1" gridSize="10" guides="1" tooltips="1" connect="1" arrows="1" fold="1" page="1" pageScale="1" pageWidth="850" pageHeight="1100" math="0" shadow="0">
      <root>
        <mxCell id="0" />
        <mxCell id="1" parent="0" />
        <mxCell id="aM9ryv3xv72pqoxQDRHE-1" value="user_socket.js" style="shape=umlLifeline;perimeter=lifelinePerimeter;whiteSpace=wrap;html=1;container=0;dropTarget=0;collapsible=0;recursiveResize=0;outlineConnect=0;portConstraint=eastwest;newEdgeStyle={&quot;edgeStyle&quot;:&quot;elbowEdgeStyle&quot;,&quot;elbow&quot;:&quot;vertical&quot;,&quot;curved&quot;:0,&quot;rounded&quot;:0};" parent="1" vertex="1">
          <mxGeometry x="160" y="40" width="100" height="300" as="geometry" />
        </mxCell>
        <mxCell id="aM9ryv3xv72pqoxQDRHE-2" value="" style="html=1;points=[];perimeter=orthogonalPerimeter;outlineConnect=0;targetShapes=umlLifeline;portConstraint=eastwest;newEdgeStyle={&quot;edgeStyle&quot;:&quot;elbowEdgeStyle&quot;,&quot;elbow&quot;:&quot;vertical&quot;,&quot;curved&quot;:0,&quot;rounded&quot;:0};" parent="aM9ryv3xv72pqoxQDRHE-1" vertex="1">
          <mxGeometry x="45" y="70" width="10" height="190" as="geometry" />
        </mxCell>
        <mxCell id="aM9ryv3xv72pqoxQDRHE-4" value="" style="html=1;points=[];perimeter=orthogonalPerimeter;outlineConnect=0;targetShapes=umlLifeline;portConstraint=eastwest;newEdgeStyle={&quot;edgeStyle&quot;:&quot;elbowEdgeStyle&quot;,&quot;elbow&quot;:&quot;vertical&quot;,&quot;curved&quot;:0,&quot;rounded&quot;:0};" parent="aM9ryv3xv72pqoxQDRHE-1" vertex="1">
          <mxGeometry x="50" y="75" width="10" height="80" as="geometry" />
        </mxCell>
        <mxCell id="aM9ryv3xv72pqoxQDRHE-5" value="prime_spiral_channels.ex" style="shape=umlLifeline;perimeter=lifelinePerimeter;whiteSpace=wrap;html=1;container=0;dropTarget=0;collapsible=0;recursiveResize=0;outlineConnect=0;portConstraint=eastwest;newEdgeStyle={&quot;edgeStyle&quot;:&quot;elbowEdgeStyle&quot;,&quot;elbow&quot;:&quot;vertical&quot;,&quot;curved&quot;:0,&quot;rounded&quot;:0};" parent="1" vertex="1">
          <mxGeometry x="340" y="40" width="150" height="300" as="geometry" />
        </mxCell>
        <mxCell id="aM9ryv3xv72pqoxQDRHE-6" value="" style="html=1;points=[];perimeter=orthogonalPerimeter;outlineConnect=0;targetShapes=umlLifeline;portConstraint=eastwest;newEdgeStyle={&quot;edgeStyle&quot;:&quot;elbowEdgeStyle&quot;,&quot;elbow&quot;:&quot;vertical&quot;,&quot;curved&quot;:0,&quot;rounded&quot;:0};" parent="aM9ryv3xv72pqoxQDRHE-5" vertex="1">
          <mxGeometry x="70" y="80" width="10" height="170" as="geometry" />
        </mxCell>
        <mxCell id="aM9ryv3xv72pqoxQDRHE-7" value="channel.push(&quot;find_primes&quot;, n);" style="html=1;verticalAlign=bottom;endArrow=block;edgeStyle=elbowEdgeStyle;elbow=vertical;curved=0;rounded=0;exitX=1;exitY=0.063;exitDx=0;exitDy=0;exitPerimeter=0;" parent="1" source="aM9ryv3xv72pqoxQDRHE-4" target="aM9ryv3xv72pqoxQDRHE-6" edge="1">
          <mxGeometry relative="1" as="geometry">
            <mxPoint x="315" y="130" as="sourcePoint" />
            <Array as="points">
              <mxPoint x="300" y="120" />
            </Array>
          </mxGeometry>
        </mxCell>
        <mxCell id="aM9ryv3xv72pqoxQDRHE-9" value="channel.on(&quot;new_prime&quot;, payload)" style="html=1;verticalAlign=bottom;endArrow=block;dashed=1;edgeStyle=elbowEdgeStyle;elbow=vertical;curved=0;rounded=0;" parent="1" target="aM9ryv3xv72pqoxQDRHE-4" edge="1">
          <mxGeometry relative="1" as="geometry">
            <mxPoint x="410" y="189.76" as="sourcePoint" />
            <Array as="points">
              <mxPoint x="310" y="189.76" />
            </Array>
            <mxPoint x="230" y="189.76" as="targetPoint" />
            <mxPoint as="offset" />
          </mxGeometry>
        </mxCell>
        <mxCell id="W1hrzCVxCjYkh5StqpZ1-1" value="primes_distibutor.ex" style="shape=umlLifeline;perimeter=lifelinePerimeter;whiteSpace=wrap;html=1;container=0;dropTarget=0;collapsible=0;recursiveResize=0;outlineConnect=0;portConstraint=eastwest;newEdgeStyle={&quot;edgeStyle&quot;:&quot;elbowEdgeStyle&quot;,&quot;elbow&quot;:&quot;vertical&quot;,&quot;curved&quot;:0,&quot;rounded&quot;:0};" parent="1" vertex="1">
          <mxGeometry x="520" y="40" width="150" height="300" as="geometry" />
        </mxCell>
        <mxCell id="W1hrzCVxCjYkh5StqpZ1-2" value="" style="html=1;points=[];perimeter=orthogonalPerimeter;outlineConnect=0;targetShapes=umlLifeline;portConstraint=eastwest;newEdgeStyle={&quot;edgeStyle&quot;:&quot;elbowEdgeStyle&quot;,&quot;elbow&quot;:&quot;vertical&quot;,&quot;curved&quot;:0,&quot;rounded&quot;:0};" parent="W1hrzCVxCjYkh5StqpZ1-1" vertex="1">
          <mxGeometry x="70" y="80" width="10" height="170" as="geometry" />
        </mxCell>
        <mxCell id="W1hrzCVxCjYkh5StqpZ1-3" value="handle_in(&quot;find_primes&quot;, ...)" style="html=1;verticalAlign=bottom;endArrow=block;edgeStyle=elbowEdgeStyle;elbow=vertical;curved=0;rounded=0;" parent="1" edge="1" target="W1hrzCVxCjYkh5StqpZ1-2">
          <mxGeometry relative="1" as="geometry">
            <mxPoint x="420" y="130" as="sourcePoint" />
            <Array as="points">
              <mxPoint x="505" y="130" />
            </Array>
            <mxPoint x="600" y="130" as="targetPoint" />
          </mxGeometry>
        </mxCell>
        <mxCell id="W1hrzCVxCjYkh5StqpZ1-5" value="distribute_primes_&lt;div&gt;calculation(n, notifier)&lt;/div&gt;" style="html=1;verticalAlign=bottom;endArrow=none;edgeStyle=elbowEdgeStyle;elbow=vertical;curved=0;rounded=0;endFill=0;startArrow=block;startFill=1;" parent="1" edge="1" target="W1hrzCVxCjYkh5StqpZ1-2" source="lqZ1yTeqZdaux9EZAJZK-6">
          <mxGeometry x="0.6429" relative="1" as="geometry">
            <mxPoint x="595.0000000000002" y="130.33333333333337" as="sourcePoint" />
            <Array as="points">
              <mxPoint x="800" y="130" />
            </Array>
            <mxPoint x="810" y="130" as="targetPoint" />
            <mxPoint as="offset" />
          </mxGeometry>
        </mxCell>
        <mxCell id="W1hrzCVxCjYkh5StqpZ1-12" value="spiral.js" style="shape=umlLifeline;perimeter=lifelinePerimeter;whiteSpace=wrap;html=1;container=0;dropTarget=0;collapsible=0;recursiveResize=0;outlineConnect=0;portConstraint=eastwest;newEdgeStyle={&quot;edgeStyle&quot;:&quot;elbowEdgeStyle&quot;,&quot;elbow&quot;:&quot;vertical&quot;,&quot;curved&quot;:0,&quot;rounded&quot;:0};" parent="1" vertex="1">
          <mxGeometry x="30" y="40" width="100" height="300" as="geometry" />
        </mxCell>
        <mxCell id="W1hrzCVxCjYkh5StqpZ1-13" value="" style="html=1;points=[];perimeter=orthogonalPerimeter;outlineConnect=0;targetShapes=umlLifeline;portConstraint=eastwest;newEdgeStyle={&quot;edgeStyle&quot;:&quot;elbowEdgeStyle&quot;,&quot;elbow&quot;:&quot;vertical&quot;,&quot;curved&quot;:0,&quot;rounded&quot;:0};" parent="W1hrzCVxCjYkh5StqpZ1-12" vertex="1">
          <mxGeometry x="45" y="70" width="10" height="190" as="geometry" />
        </mxCell>
        <mxCell id="aM9ryv3xv72pqoxQDRHE-3" value="&lt;br&gt;Click Button: &quot;&lt;b&gt;Start Calculation&lt;/b&gt;&quot;" style="html=1;verticalAlign=bottom;startArrow=oval;endArrow=block;startSize=8;edgeStyle=elbowEdgeStyle;elbow=vertical;curved=0;rounded=0;" parent="1" edge="1">
          <mxGeometry x="-1" y="-10" relative="1" as="geometry">
            <mxPoint x="150" y="40" as="sourcePoint" />
            <mxPoint x="204" y="120" as="targetPoint" />
            <Array as="points">
              <mxPoint x="178" y="120" />
            </Array>
            <mxPoint x="10" y="-10" as="offset" />
          </mxGeometry>
        </mxCell>
        <mxCell id="W1hrzCVxCjYkh5StqpZ1-16" value="notifier(:new_prime, i)" style="html=1;verticalAlign=bottom;endArrow=block;dashed=1;edgeStyle=elbowEdgeStyle;elbow=vertical;curved=0;rounded=0;" parent="1" edge="1" source="W1hrzCVxCjYkh5StqpZ1-2">
          <mxGeometry relative="1" as="geometry">
            <mxPoint x="520" y="210" as="sourcePoint" />
            <Array as="points">
              <mxPoint x="510" y="177" />
            </Array>
            <mxPoint x="420" y="177.24" as="targetPoint" />
            <mxPoint as="offset" />
          </mxGeometry>
        </mxCell>
        <mxCell id="W1hrzCVxCjYkh5StqpZ1-19" value="addPointToGrid(x, y)" style="html=1;verticalAlign=bottom;endArrow=block;dashed=1;edgeStyle=elbowEdgeStyle;elbow=vertical;curved=0;rounded=0;" parent="1" source="aM9ryv3xv72pqoxQDRHE-2" target="W1hrzCVxCjYkh5StqpZ1-13" edge="1">
          <mxGeometry relative="1" as="geometry">
            <mxPoint x="200" y="220" as="sourcePoint" />
            <Array as="points">
              <mxPoint x="100" y="220" />
            </Array>
            <mxPoint x="10" y="220.24" as="targetPoint" />
            <mxPoint as="offset" />
          </mxGeometry>
        </mxCell>
        <mxCell id="W1hrzCVxCjYkh5StqpZ1-26" value="" style="strokeWidth=1;html=1;shape=mxgraph.flowchart.annotation_2;align=left;labelPosition=right;pointerEvents=1;rotation=-90;" parent="1" vertex="1">
          <mxGeometry x="311.88" y="200.63" width="33.75" height="352.5" as="geometry" />
        </mxCell>
        <mxCell id="W1hrzCVxCjYkh5StqpZ1-27" value="" style="strokeWidth=1;html=1;shape=mxgraph.flowchart.annotation_2;align=left;labelPosition=right;pointerEvents=1;rotation=-90;" parent="1" vertex="1">
          <mxGeometry x="62.5" y="332.5" width="35" height="90" as="geometry" />
        </mxCell>
        <mxCell id="W1hrzCVxCjYkh5StqpZ1-28" value="" style="strokeWidth=1;html=1;shape=mxgraph.flowchart.annotation_2;align=left;labelPosition=right;pointerEvents=1;rotation=-90;" parent="1" vertex="1">
          <mxGeometry x="830.77" y="69.24" width="31.25" height="612.8" as="geometry" />
        </mxCell>
        <mxCell id="W1hrzCVxCjYkh5StqpZ1-30" value="" style="shape=image;verticalLabelPosition=bottom;labelBackgroundColor=default;verticalAlign=top;aspect=fixed;imageAspect=0;image=https://www.phoenixframework.org/images/phoenix-orange.png;" parent="1" vertex="1">
          <mxGeometry x="240" y="409.31" width="208.75" height="28.36" as="geometry" />
        </mxCell>
        <mxCell id="W1hrzCVxCjYkh5StqpZ1-31" value="" style="shape=image;verticalLabelPosition=bottom;labelBackgroundColor=default;verticalAlign=top;aspect=fixed;imageAspect=0;image=https://www.startpage.com/sp/sxpra?url=https%3A%2F%2Fupload.wikimedia.org%2Fwikipedia%2Fen%2Fa%2Fa4%2FElixir_programming_language_logo.png;" parent="1" vertex="1">
          <mxGeometry x="826.3900000000001" y="400.07" width="40" height="45.2" as="geometry" />
        </mxCell>
        <mxCell id="W1hrzCVxCjYkh5StqpZ1-33" value="" style="shape=image;verticalLabelPosition=bottom;labelBackgroundColor=default;verticalAlign=top;aspect=fixed;imageAspect=0;image=https://upload.wikimedia.org/wikipedia/commons/thumb/3/3f/Three.js_Icon.svg/220px-Three.js_Icon.svg.png;" parent="1" vertex="1">
          <mxGeometry x="37.5" y="392.47" width="45" height="45" as="geometry" />
        </mxCell>
        <mxCell id="W1hrzCVxCjYkh5StqpZ1-34" value="&lt;div&gt;&lt;b&gt;Three.js&lt;/b&gt;&lt;/div&gt;" style="text;html=1;align=center;verticalAlign=middle;resizable=0;points=[];autosize=1;strokeColor=none;fillColor=none;" parent="1" vertex="1">
          <mxGeometry x="60" y="407.67" width="70" height="30" as="geometry" />
        </mxCell>
        <mxCell id="lqZ1yTeqZdaux9EZAJZK-1" value="prime_calculator.ex" style="shape=umlLifeline;perimeter=lifelinePerimeter;whiteSpace=wrap;html=1;container=0;dropTarget=0;collapsible=0;recursiveResize=0;outlineConnect=0;portConstraint=eastwest;newEdgeStyle={&quot;edgeStyle&quot;:&quot;elbowEdgeStyle&quot;,&quot;elbow&quot;:&quot;vertical&quot;,&quot;curved&quot;:0,&quot;rounded&quot;:0};" vertex="1" parent="1">
          <mxGeometry x="1025" y="40" width="150" height="300" as="geometry" />
        </mxCell>
        <mxCell id="lqZ1yTeqZdaux9EZAJZK-2" value="" style="html=1;points=[];perimeter=orthogonalPerimeter;outlineConnect=0;targetShapes=umlLifeline;portConstraint=eastwest;newEdgeStyle={&quot;edgeStyle&quot;:&quot;elbowEdgeStyle&quot;,&quot;elbow&quot;:&quot;vertical&quot;,&quot;curved&quot;:0,&quot;rounded&quot;:0};" vertex="1" parent="lqZ1yTeqZdaux9EZAJZK-1">
          <mxGeometry x="70" y="80" width="10" height="170" as="geometry" />
        </mxCell>
        <mxCell id="lqZ1yTeqZdaux9EZAJZK-5" value="primes_distibutor.ex" style="shape=umlLifeline;perimeter=lifelinePerimeter;whiteSpace=wrap;html=1;container=0;dropTarget=0;collapsible=0;recursiveResize=0;outlineConnect=0;portConstraint=eastwest;newEdgeStyle={&quot;edgeStyle&quot;:&quot;elbowEdgeStyle&quot;,&quot;elbow&quot;:&quot;vertical&quot;,&quot;curved&quot;:0,&quot;rounded&quot;:0};" vertex="1" parent="1">
          <mxGeometry x="810" y="40" width="150" height="300" as="geometry" />
        </mxCell>
        <mxCell id="lqZ1yTeqZdaux9EZAJZK-6" value="" style="html=1;points=[];perimeter=orthogonalPerimeter;outlineConnect=0;targetShapes=umlLifeline;portConstraint=eastwest;newEdgeStyle={&quot;edgeStyle&quot;:&quot;elbowEdgeStyle&quot;,&quot;elbow&quot;:&quot;vertical&quot;,&quot;curved&quot;:0,&quot;rounded&quot;:0};" vertex="1" parent="lqZ1yTeqZdaux9EZAJZK-5">
          <mxGeometry x="70" y="80" width="10" height="170" as="geometry" />
        </mxCell>
        <mxCell id="lqZ1yTeqZdaux9EZAJZK-13" value="notifier.(:new_prime, i)" style="html=1;verticalAlign=bottom;endArrow=block;dashed=1;edgeStyle=orthogonalEdgeStyle;elbow=vertical;rounded=0;" edge="1" parent="1" source="lqZ1yTeqZdaux9EZAJZK-1" target="aM9ryv3xv72pqoxQDRHE-6">
          <mxGeometry x="-0.8325" y="-10" relative="1" as="geometry">
            <mxPoint x="990" y="250" as="sourcePoint" />
            <Array as="points">
              <mxPoint x="960" y="240" />
              <mxPoint x="960" y="310" />
              <mxPoint x="501" y="310" />
              <mxPoint x="501" y="240" />
            </Array>
            <mxPoint x="500" y="280" as="targetPoint" />
            <mxPoint as="offset" />
          </mxGeometry>
        </mxCell>
        <mxCell id="lqZ1yTeqZdaux9EZAJZK-9" value="" style="endArrow=classic;html=1;rounded=0;" edge="1" parent="1" target="lqZ1yTeqZdaux9EZAJZK-2">
          <mxGeometry width="50" height="50" relative="1" as="geometry">
            <mxPoint x="890" y="130" as="sourcePoint" />
            <mxPoint x="700" y="250" as="targetPoint" />
          </mxGeometry>
        </mxCell>
        <mxCell id="lqZ1yTeqZdaux9EZAJZK-10" value="find_primes_in_range(range, notifier)" style="edgeLabel;html=1;align=center;verticalAlign=middle;resizable=0;points=[];" vertex="1" connectable="0" parent="lqZ1yTeqZdaux9EZAJZK-9">
          <mxGeometry x="-0.2812" y="-2" relative="1" as="geometry">
            <mxPoint x="22" y="-12" as="offset" />
          </mxGeometry>
        </mxCell>
        <mxCell id="lqZ1yTeqZdaux9EZAJZK-4" value="Inter-node communication&amp;nbsp;&lt;div&gt;via PubSub&lt;/div&gt;" style="ellipse;shape=cloud;whiteSpace=wrap;html=1;" vertex="1" parent="1">
          <mxGeometry x="680" y="50" width="140" height="290" as="geometry" />
        </mxCell>
      </root>
    </mxGraphModel>
  </diagram>
</mxfile>
